<svg width="64" height="60" viewBox="0 0 64 60" fill="none" xmlns="http://www.w3.org/2000/svg">
<path d="M33.8001 59.9891C32.9668 59.9076 32.2576 59.3486 31.9848 58.5571C31.7113 57.7657 31.9243 56.8883 32.5296 56.3099L56.7105 32.1269H2.2429C2.17564 32.1299 2.10912 32.1299 2.04186 32.1269C0.860303 32.0716 -0.0529076 31.0679 0.00238398 29.8856C0.057687 28.704 1.06061 27.7901 2.24294 27.8454H56.7105L32.5297 3.69491C32.1119 3.29882 31.8705 2.75176 31.8615 2.1763C31.8518 1.6001 32.0753 1.04481 32.4796 0.636018C32.8846 0.226477 33.4369 -0.00295585 34.0131 2.87592e-05C34.5886 0.00301815 35.1386 0.238435 35.5392 0.651707L63.3647 28.4812C63.7706 28.8833 64 29.4311 64 30.0028C64 30.5746 63.7713 31.1231 63.3655 31.5252L35.54 59.3547C35.0871 59.8188 34.4465 60.0518 33.8001 59.9891Z" fill="url(#paint0_linear_160_258)"/>
<defs>
<linearGradient id="paint0_linear_160_258" x1="-4.42862e-07" y1="59.9991" x2="59.8743" y2="-3.86774" gradientUnits="userSpaceOnUse">
<stop stop-color="#4B0ADF"/>
<stop offset="1" stop-color="#8F2FCA"/>
</linearGradient>
</defs>
</svg>
