<svg width="647" height="638" viewBox="0 0 647 638" fill="none" xmlns="http://www.w3.org/2000/svg">
<path fill-rule="evenodd" clip-rule="evenodd" d="M638.016 318.78C642.979 318.78 647.011 322.749 646.892 327.635C644.887 409.142 615.072 479.533 557.44 538.807C554.282 542.055 549.122 542.143 545.779 539.086C542.181 535.794 542.088 530.164 545.473 526.654C599.13 471.007 626.946 404.669 628.917 327.638C629.04 322.749 633.052 318.78 638.016 318.78ZM323.481 629.535C323.481 633.937 319.859 637.513 315.394 637.417C232.596 635.658 161.075 606.768 100.833 550.744C97.2599 547.421 97.3549 541.768 100.955 538.474C104.29 535.424 109.423 535.529 112.714 538.626C169.518 592.089 237.079 619.706 315.394 621.475C319.859 621.577 323.481 625.133 323.481 629.535ZM100.054 98.7433C103.738 101.854 103.956 107.449 100.627 110.937C47.5234 166.576 19.997 232.905 18.0482 309.924C17.9253 314.812 13.9126 318.78 8.94916 318.78C3.98575 318.78 -0.0496631 314.813 0.0699762 309.925C2.05967 228.271 31.7157 158.037 89.032 99.2233C91.9977 96.1802 96.8076 96.0017 100.054 98.7433ZM544.907 99.6761C548.583 96.5725 548.813 90.9779 545.322 87.6693C485.617 31.0958 414.367 1.92067 331.571 0.144215C327.106 0.0484068 323.481 3.62527 323.481 8.02591C323.481 12.4265 327.106 15.984 331.571 16.085C410.037 17.8602 477.438 45.592 533.774 99.2809C536.854 102.216 541.657 102.421 544.907 99.6761Z" fill="url(#paint0_linear_160_288)" fill-opacity="0.4"/>
<defs>
<linearGradient id="paint0_linear_160_288" x1="323.481" y1="0.142334" x2="323.481" y2="637.419" gradientUnits="userSpaceOnUse">
<stop stop-color="#3B0D9A"/>
<stop offset="1" stop-color="#492558"/>
</linearGradient>
</defs>
</svg>
