<?xml version="1.0" encoding="UTF-8" standalone="no"?>
<svg
   width="112"
   height="28"
   viewBox="0 0 112 28"
   fill="none"
   version="1.1"
   id="svg87"
   sodipodi:docname="main-logo.svg"
   xmlns:inkscape="http://www.inkscape.org/namespaces/inkscape"
   xmlns:sodipodi="http://sodipodi.sourceforge.net/DTD/sodipodi-0.dtd"
   xmlns:xlink="http://www.w3.org/1999/xlink"
   xmlns="http://www.w3.org/2000/svg"
   xmlns:svg="http://www.w3.org/2000/svg">
  <sodipodi:namedview
     id="namedview89"
     pagecolor="#ffffff"
     bordercolor="#000000"
     borderopacity="0.25"
     inkscape:showpageshadow="2"
     inkscape:pageopacity="0.0"
     inkscape:pagecheckerboard="0"
     inkscape:deskcolor="#d1d1d1"
     showgrid="false" />
  <path
     d="m 36.8087,0.5237 c 0.2758,0 0.4431,0.3109 0.2954,0.5489 l -9.4573,15.2377 v 10.7809 c 0,0.2128 -0.1687,0.3851 -0.3768,0.3851 -0.2082,0 -0.3768,-0.1723 -0.3768,-0.3851 V 16.3103 L 17.4358,1.0726 c -0.1477,-0.238 0.0197,-0.5489 0.2955,-0.5489 0.1201,0 0.2317,0.0629 0.2958,0.1666 L 27.27,15.6556 36.5128,0.6903 c 0.064,-0.1037 0.1757,-0.1666 0.2959,-0.1666 z"
     fill="white"
     id="path23"
     style="fill:#ffffff" />
  <path
     d="m 47.6776,27.8614 c -2.4368,0 -4.4718,-0.5518 -6.1048,-1.6556 -1.5463,-1.0696 -2.5857,-2.4036 -3.1183,-4.0024 -0.0528,-0.1584 0.0143,-0.3312 0.1556,-0.4162 0.2019,-0.1213 0.4613,-0.0137 0.5383,0.2122 0.4987,1.4636 1.4326,2.6732 2.8012,3.6288 1.5325,1.0267 3.4418,1.5401 5.728,1.5401 2.4374,0 4.2834,-0.6032 5.5394,-1.8097 1.282,-1.232 1.922,-2.7723 1.922,-4.6204 0,-1.6429 -0.653,-2.952 -1.959,-3.9274 C 51.898,15.8097 50.027,14.9369 47.5646,14.1925 46.233,13.8075 45.1403,13.4353 44.286,13.0759 43.4318,12.7165 42.6028,12.2673 41.7989,11.7283 40.9949,11.1892 40.3919,10.5347 39.99,9.7646 39.6132,8.9945 39.4248,8.1089 39.4248,7.1078 c 0,-1.9509 0.7159,-3.5937 2.148,-4.9285 1.4571,-1.3605 3.3287,-2.0407 5.6149,-2.0407 2.0099,0 3.6803,0.5006 5.0123,1.5017 1.277,0.9425 2.22,2.1582 2.83,3.6469 0.065,0.1601 0,0.3434 -0.148,0.4285 C 54.699,5.8204 54.469,5.735 54.387,5.5388 53.069,2.4007 50.669,0.8317 47.1877,0.8317 c -2.1856,0 -3.9065,0.6289 -5.1627,1.8867 -1.231,1.2578 -1.8466,2.7209 -1.8466,4.3894 0,0.7444 0.1508,1.4247 0.4522,2.0407 0.3015,0.5904 0.6407,1.0781 1.0175,1.4632 0.3769,0.385 0.9673,0.7829 1.7712,1.1936 0.804,0.385 1.4697,0.6802 1.9973,0.8856 0.5527,0.2053 1.3692,0.4877 2.4495,0.8471 2.6379,0.8727 4.6349,1.8352 5.9919,2.8877 1.357,1.0525 2.035,2.49 2.035,4.3125 0,2.1305 -0.741,3.8504 -2.223,5.1594 -1.458,1.3093 -3.455,1.9638 -5.9924,1.9638 z"
     fill="white"
     id="path25"
     style="fill:#ffffff" />
  <path
     d="m 111.111,0.9087 c 0,-0.2127 0.169,-0.385 0.377,-0.385 0.208,0 0.377,0.1723 0.377,0.385 v 26.0625 c 0,0.279 -0.222,0.5051 -0.495,0.5051 -0.162,0 -0.314,-0.0815 -0.406,-0.218 L 93.776,1.8328 v 25.2584 c 0,0.2128 -0.169,0.3851 -0.377,0.3851 -0.208,0 -0.377,-0.1723 -0.377,-0.3851 V 1.0287 c 0,-0.2789 0.222,-0.505 0.495,-0.505 0.162,0 0.314,0.0815 0.407,0.218 l 17.187,25.4255 z"
     fill="white"
     id="path27"
     style="fill:#ffffff" />
  <path
     fill-rule="evenodd"
     clip-rule="evenodd"
     d="m 86.622,14 c 0.208,0 0.377,0.1726 0.372,0.3851 -0.087,3.6598 -1.417,6.8043 -3.99,9.4334 L 82.476,23.3179 C 84.9,20.8419 86.154,17.8643 86.24,14.3852 86.245,14.1726 86.414,14 86.622,14 Z m -13.19,13.5149 c 0,0.1914 -0.152,0.3469 -0.339,0.3428 -3.598,-0.0793 -6.688,-1.4257 -9.27,-4.0392 l 0.527,-0.5006 c 2.432,2.4847 5.346,3.7668 8.743,3.8464 0.187,0.0044 0.339,0.1591 0.339,0.3506 z M 64.35,4.6821 c -2.399,2.476 -3.641,5.4536 -3.726,8.9327 C 60.619,13.8274 60.451,14 60.243,14 60.034,14 59.865,13.8275 59.87,13.6149 59.956,9.956 61.274,6.8244 63.823,4.22 Z M 83.004,4.22 C 80.446,1.5817 77.369,0.2224 73.771,0.1424 73.584,0.1382 73.432,0.2938 73.432,0.4852 c 0,0.1913 0.152,0.3461 0.339,0.3505 3.396,0.0796 6.298,1.3618 8.705,3.8464 z"
     fill="white"
     id="path29"
     style="fill:#ffffff" />
  <path
     d="m 83.004,4.22 -0.527,0.4621 c 1.199,1.2254 2.112,2.5736 2.739,4.0447 0.084,0.1973 0.309,0.29 0.501,0.2001 0.179,-0.084 0.261,-0.2972 0.182,-0.4812 C 85.235,6.9096 84.27,5.501 83.004,4.22 Z"
     fill="white"
     id="path31"
     style="fill:#ffffff" />
  <path
     d="m 83.004,23.8184 -0.527,-0.5005 c -1.148,1.1847 -2.409,2.0963 -3.781,2.7342 -0.191,0.0887 -0.269,0.3268 -0.162,0.5114 0.087,0.1515 0.271,0.2142 0.428,0.1423 1.467,-0.6707 2.815,-1.633 4.042,-2.8874 z"
     fill="white"
     id="path33"
     style="fill:#ffffff" />
  <path
     d="m 63.822,23.8184 0.528,-0.5005 c -1.163,-1.2004 -2.054,-2.5186 -2.674,-3.9548 -0.091,-0.2122 -0.344,-0.2998 -0.538,-0.1805 -0.157,0.096 -0.222,0.2947 -0.147,0.4651 0.656,1.5105 1.6,2.9008 2.831,4.1707 z"
     fill="white"
     id="path35"
     style="fill:#ffffff" />
  <path
     style="opacity:1;fill:#ffffff;fill-opacity:1"
     d="m 0.8894,26.7832 h 13.6043 c 0.1873,0 0.339,0.1553 0.339,0.3466 0,0.1914 -0.1517,0.3465 -0.339,0.3465 H 0.1357 V 0.5237 h 14.1697 c 0.1871,0 0.339,0.1551 0.339,0.3465 0,0.1914 -0.1519,0.3465 -0.339,0.3465 H 0.8894 V 13.538 h 12.4738 c 0.1872,0 0.3389,0.1551 0.3389,0.3465 0,0.1913 -0.1517,0.3466 -0.3389,0.3466 H 0.8894 Z"
     id="path39" />
  <path
     d="m 63.822,4.22 0.528,0.4621 c 1.126,-1.151 2.356,-2.044 3.69,-2.6789 0.193,-0.0919 0.265,-0.338 0.147,-0.519 C 68.096,1.3443 67.919,1.2909 67.77,1.3615 66.343,2.0356 65.028,2.9885 63.822,4.22 Z"
     fill="white"
     id="path37"
     style="fill:#ffffff" />
  <path
     d="m 64.304,23.2672 -0.528,0.5005 0.093,0.1016 0.527,-0.5005 z m 18.126,0.1016 0.528,0.5005 0.092,-0.1016 -0.528,-0.5005 z M 82.52,4.7347 83.048,4.2727 82.96,4.1674 82.432,4.6294 Z m -18.742,-0.462 0.528,0.462 0.088,-0.1053 -0.527,-0.462 z M 27.6468,16.3103 27.5323,16.236 27.5112,16.2699 v 0.0404 z m -0.7536,0 h 0.1355 V 16.2699 L 27.0076,16.236 Z m 0.3768,-0.6547 -0.1147,0.074 0.1147,0.1858 0.1145,-0.1858 z m 14.3025,10.5502 -0.0761,0.1148 0.0012,8e-4 z m 0.3768,-0.5776 -0.0765,0.1145 0.0011,7e-4 0.0011,7e-4 z m 11.2677,-0.2696 0.093,0.101 z m -0.038,-8.5478 -0.082,0.1101 10e-4,9e-4 10e-4,9e-4 z m -5.6148,-2.6183 0.0385,-0.1329 -0.0015,-4e-4 z m -3.2785,-1.1166 0.0517,-0.1282 z m -2.4872,-1.3476 0.0744,-0.1159 z m -1.8088,-1.9637 -0.1214,0.062 9e-4,0.0016 9e-4,0.0016 z m 1.5828,-7.5853 0.0912,0.1025 2e-4,-1e-4 z m 10.6265,-0.539 -0.08,0.1116 10e-4,8e-4 z m -10.1743,1.0781 -0.0949,-0.0991 -10e-4,10e-4 z m -1.3945,6.4301 -0.1212,0.062 6e-4,0.0011 5e-4,0.0011 z m 1.0175,1.4632 0.0959,-0.0981 z m 1.7713,1.1936 -0.0606,0.124 0.0015,8e-4 0.0016,7e-4 z m 1.9973,0.8856 -0.0483,0.1295 9e-4,4e-4 0.001,3e-4 z m 2.4495,0.8471 -0.0421,0.1318 h 3e-4 z m 5.9922,2.8877 -0.082,0.1105 z m -0.189,9.4719 -0.089,-0.1047 v 6e-4 z m 29.335,-2.0792 0.096,0.0982 z m -19.181,0 -0.097,0.0976 10e-4,0.001 z m 0,-19.5984 -0.096,-0.098 z m 19.181,0 -0.096,0.0976 v 9e-4 z M 64.35,23.3179 64.254,23.4155 v 5e-4 z m 18.126,0 -0.096,-0.098 v 6e-4 z m 0,-18.6358 -0.096,0.0975 v 5e-4 z m -18.126,0 -0.096,-0.0981 v 5e-4 z M 93.776,1.8328 93.887,1.754 93.64,1.3884 v 0.4444 z m 17.335,24.3344 -0.112,0.0788 0.247,0.3656 v -0.4444 z m -49.434,-6.8041 0.124,-0.056 z m -0.539,-0.1805 -0.07,-0.1189 z m -0.147,0.4651 -0.124,0.0563 z m 17.971,7.0581 0.055,0.1265 z m -0.429,-0.1423 0.117,-0.0706 z m 0.162,-0.5114 0.056,0.1261 z M 85.899,8.4457 85.775,8.5018 Z M 85.716,8.927 85.66,8.801 Z M 85.215,8.7268 85.34,8.6714 Z M 68.04,2.0032 68.097,2.1289 Z m 0.147,-0.519 -0.112,0.0769 z M 67.77,1.3615 67.713,1.2357 Z M 93.923,0.7417 93.812,0.8205 Z M 36.5128,0.6903 36.3981,0.6163 Z M 73.771,0.1424 73.768,0.281 Z M 59.87,13.6149 59.735,13.6115 Z M 73.093,27.8576 73.09,27.9963 Z M 86.24,14.3852 86.376,14.3887 Z M 55.029,5.2872 54.904,5.3407 Z m -0.148,0.4285 0.067,0.1208 z m -16.4269,16.4877 -0.1283,0.0448 z m 0.1557,-0.4162 -0.0688,-0.1195 z m 72.3532,5.4711 0.112,-0.0788 z M 39.1481,21.9994 39.0201,22.045 Z M 60.624,13.6148 60.76,13.6183 Z M 17.4358,1.0726 17.3214,1.1468 Z M 73.771,0.8356 73.774,0.6971 Z M 18.0271,0.6903 17.9125,0.7644 Z m 55.0659,26.474 0.003,-0.1385 z M 54.386,5.5388 54.511,5.4841 Z m 32.608,8.8463 -0.136,-0.0034 z M 37.1041,1.0726 37.2186,1.1468 Z M 0.8893,26.7832 H 0.7537 v 0.1387 H 0.8893 Z M 0.1356,27.4763 H 0 v 0.1386 h 0.1356 z m 0,-26.9526 V 0.385 H 0 v 0.1387 z m 0.7537,0.693 V 1.0781 H 0.7537 v 0.1386 z m 0,12.3213 H 0.7537 v 0.1386 h 0.1356 z m 0,0.6931 V 14.0925 H 0.7537 v 0.1386 z M 36.9896,0.9983 27.5323,16.236 27.7612,16.3844 37.2186,1.1468 Z m -9.4784,15.312 v 10.7809 h 0.2712 V 16.3103 Z M 27.0287,27.0912 V 16.3103 H 26.7576 V 27.0912 Z M 27.0076,16.236 17.5502,0.9983 17.3214,1.1468 26.7786,16.3844 Z M 17.9125,0.7644 27.1553,15.7296 27.3845,15.5817 18.1418,0.6163 Z m 9.472,14.9652 9.2429,-14.9652 -0.2293,-0.1481 -9.2428,14.9654 z m 20.2928,11.9932 c -2.4168,0 -4.4241,-0.5473 -6.0301,-1.6328 l -0.1496,0.2314 C 43.1577,27.4435 45.2203,28 47.6773,28 Z m -6.0289,-1.6319 c -1.5251,-1.0547 -2.544,-2.3656 -3.0659,-3.9321 l -0.2567,0.0894 c 0.5434,1.631 1.6033,2.9883 3.1706,4.0724 z M 39.0201,22.045 c 0.5091,1.4943 1.4623,2.727 2.8527,3.6977 l 0.153,-0.229 c -1.3472,-0.9405 -2.2613,-2.1269 -2.7497,-3.5599 z m 2.8549,3.6991 c 1.5594,1.0448 3.4963,1.5628 5.8023,1.5628 v -0.2772 c -2.2663,0 -4.1482,-0.5088 -5.6537,-1.5174 z m 5.8023,1.5628 c 2.4577,0 4.3427,-0.6082 5.6327,-1.8473 l -0.186,-0.2019 c -1.222,1.1737 -3.03,1.772 -5.4467,1.772 z M 53.31,25.4596 c 1.309,-1.2591 1.964,-2.8362 1.964,-4.7214 h -0.271 c 0,1.8111 -0.626,3.3144 -1.879,4.5195 z m 1.964,-4.7214 c 0,-1.6874 -0.674,-3.038 -2.015,-4.0394 l -0.16,0.2239 c 1.272,0.9496 1.904,2.2172 1.904,3.8155 z m -2.012,-4.0376 c -1.3,-1.0156 -3.19,-1.8943 -5.6593,-2.641 l -0.0769,0.2659 c 2.4544,0.7421 4.3082,1.6089 5.5712,2.5954 z M 47.6012,14.0592 C 46.2724,13.6749 45.185,13.3044 44.3374,12.9477 l -0.1034,0.2564 c 0.8608,0.3621 1.9591,0.736 3.2933,1.1218 z M 44.3374,12.9477 C 43.4914,12.5918 42.67,12.1468 41.8729,11.6124 l -0.1487,0.2318 c 0.8109,0.5437 1.6475,0.997 2.5098,1.3599 z m -2.4645,-1.3353 c -0.7873,-0.528 -1.3736,-1.166 -1.7636,-1.9131 l -0.2392,0.1305 c 0.4138,0.7931 1.0335,1.4642 1.8541,2.0144 z M 40.1109,9.7026 C 39.7449,8.9546 39.56,8.0909 39.56,7.1078 h -0.2712 c 0,1.0191 0.1919,1.9266 0.5795,2.7188 z M 39.56,7.1078 c 0,-1.9112 0.6994,-3.517 2.1037,-4.826 L 41.4811,2.0769 C 40.0214,3.4375 39.2888,5.1173 39.2888,7.1078 Z M 41.6639,2.2817 C 43.0921,0.9482 44.9294,0.2772 47.1874,0.2772 V 0 C 44.8731,0 42.967,0.6895 41.4809,2.077 Z m 5.5235,-2.0045 c 1.9874,0 3.6286,0.4946 4.9316,1.4747 L 52.28,1.5286 C 50.92,0.5065 49.2198,0 47.1874,0 Z M 52.12,1.7527 c 1.257,0.9275 2.185,2.1228 2.784,3.588 l 0.25,-0.107 C 54.535,3.7215 53.576,2.4854 52.279,1.5279 Z m 2.391,3.7314 C 53.843,3.8941 52.898,2.6936 51.671,1.8917 50.445,1.09 48.9483,0.6931 47.1874,0.6931 v 0.2772 c 1.7207,0 3.1646,0.3876 4.3376,1.1549 1.173,0.7671 2.087,1.9202 2.737,3.4683 z m -7.3236,-4.791 c -2.2121,0 -3.9703,0.6372 -5.2576,1.9262 l 0.1897,0.1981 c 1.225,-1.2266 2.9086,-1.8471 5.0679,-1.8471 z m -5.2586,1.9272 c -1.2546,1.2819 -1.8864,2.7796 -1.8864,4.4875 h 0.2712 c 0,-1.6291 0.5995,-3.0577 1.8069,-4.2914 z m -1.8864,4.4875 c 0,0.7642 0.155,1.4659 0.4666,2.1027 l 0.2426,-0.124 c -0.2914,-0.5953 -0.438,-1.254 -0.438,-1.9787 z m 0.4677,2.1049 c 0.3064,0.6002 0.6533,1.1001 1.0418,1.497 l 0.1917,-0.1961 C 41.3784,10.1405 41.0469,9.6649 40.7505,9.0844 Z m 1.0418,1.497 c 0.3918,0.4004 0.9971,0.8061 1.8065,1.2196 l 0.1212,-0.248 c -0.7987,-0.408 -1.3741,-0.7979 -1.736,-1.1677 z m 1.8096,1.2211 c 0.8054,0.3858 1.4746,0.6825 2.0065,0.8896 l 0.0965,-0.2591 c -0.5232,-0.2036 -1.1856,-0.4972 -1.988,-0.8815 z m 2.0084,0.8903 c 0.555,0.2062 1.3732,0.4892 2.4538,0.8487 l 0.084,-0.2637 c -1.0799,-0.3592 -1.8947,-0.641 -2.4452,-0.8455 z m 2.4541,0.8487 c 2.631,0.8707 4.612,1.8274 5.952,2.8664 L 53.94,16.3153 C 52.566,15.2495 50.552,14.281 47.9075,13.4061 Z m 5.952,2.8664 c 1.321,1.0248 1.981,2.4205 1.981,4.202 h 0.271 c 0,-1.8636 -0.696,-3.3429 -2.088,-4.4229 z m 1.981,4.202 c 0,2.0932 -0.726,3.7737 -2.177,5.0547 l 0.178,0.2097 c 1.514,-1.3374 2.27,-3.0965 2.27,-5.2644 z m -2.177,5.0553 c -1.426,1.2808 -3.388,1.9293 -5.9027,1.9293 V 28 c 2.5597,0 4.5927,-0.6608 6.0817,-1.9983 z m 19.516,1.9255 c -3.563,-0.0784 -6.62,-1.4102 -9.178,-3.999 l -0.191,0.197 c 2.607,2.6382 5.73,3.9991 9.363,4.0793 z M 60.006,13.6182 c 0.085,-3.623 1.388,-6.7208 3.912,-9.3001 L 63.727,4.122 c -2.574,2.6293 -3.906,5.7948 -3.992,9.4895 z M 73.768,0.281 c 3.562,0.0792 6.606,1.4235 9.14,4.0366 L 83.1,4.1224 C 80.518,1.4588 77.407,0.0846 73.774,0.0038 Z m 13.09,14.1007 c -0.086,3.6235 -1.401,6.7343 -3.95,9.3387 l 0.192,0.1962 c 2.597,-2.6539 3.942,-5.8322 4.029,-9.5281 z M 64.254,23.416 c 2.456,2.5095 5.404,3.8064 8.836,3.8869 l 0.006,-0.2771 c -3.361,-0.0788 -6.243,-1.3462 -8.65,-3.8059 z m 18.318,0 c 2.448,-2.501 3.717,-5.5124 3.804,-9.0273 l -0.271,-0.007 c -0.085,3.4434 -1.326,6.3871 -3.725,8.8382 z M 82.573,4.5845 C 80.141,2.0746 77.206,0.7776 73.774,0.6971 l -0.006,0.2771 c 3.361,0.0789 6.229,1.3461 8.612,3.8054 z m -18.319,0 c -2.424,2.5011 -3.68,5.5123 -3.766,9.0269 l 0.272,0.0069 c 0.084,-3.4438 1.312,-6.3877 3.686,-8.8387 z M 111.729,0.9087 V 26.9712 H 112 V 0.9087 Z M 111.075,27.1795 93.887,1.754 93.664,1.9116 110.852,27.3371 Z M 93.64,1.8328 v 25.2584 h 0.271 V 1.8328 Z M 93.158,27.0912 V 1.0287 H 92.887 V 27.0912 Z M 93.812,0.8205 110.999,26.246 111.222,26.0884 94.035,0.6629 Z m 17.434,25.3467 V 0.9087 h -0.271 V 26.1672 Z M 63.918,4.3181 C 65.113,3.0971 66.416,2.154 67.827,1.4873 L 67.713,1.2357 C 66.271,1.9172 64.942,2.8799 63.727,4.122 Z m 4.065,-2.4406 c -1.349,0.6423 -2.592,1.545 -3.729,2.7065 l 0.192,0.1961 C 65.562,3.6396 66.779,2.7564 68.097,2.1289 Z M 85.34,8.6714 C 84.706,7.1832 83.783,5.8207 82.572,4.584 L 82.38,4.7801 c 1.189,1.2141 2.092,2.5481 2.711,4.002 z M 82.908,4.3185 c 1.255,1.2699 2.21,2.6643 2.867,4.1833 L 86.023,8.3897 C 85.351,6.8364 84.376,5.4137 83.099,4.1215 Z m -4.157,21.8597 c 1.389,-0.6454 2.663,-1.567 3.822,-2.7627 l -0.193,-0.195 c -1.137,1.1736 -2.384,2.0749 -3.741,2.7054 z m 4.157,-2.4578 c -1.217,1.2434 -2.551,2.1957 -4.001,2.8588 l 0.11,0.2531 c 1.484,-0.6779 2.844,-1.6505 4.083,-2.9157 z m -18.989,5e-4 c -1.221,-1.2591 -2.155,-2.6355 -2.804,-4.1295 l -0.248,0.1126 c 0.664,1.5271 1.617,2.9311 2.859,4.212 z M 61.553,19.419 c 0.626,1.4528 1.527,2.785 2.701,3.9965 l 0.192,-0.195 c -1.152,-1.1894 -2.033,-2.4938 -2.645,-3.9134 z m 0.248,-0.1119 c -0.123,-0.2854 -0.465,-0.4072 -0.733,-0.2434 l 0.14,0.2377 c 0.121,-0.0745 0.285,-0.0215 0.345,0.1176 z m -0.686,0.2843 c -0.046,-0.1044 -0.007,-0.2288 0.093,-0.29 l -0.14,-0.2377 c -0.213,0.1309 -0.304,0.4039 -0.201,0.6403 z m 17.792,6.9878 c -0.093,0.0423 -0.203,0.0064 -0.257,-0.0863 l -0.233,0.1412 c 0.121,0.2104 0.378,0.2997 0.6,0.1982 z m -0.268,-0.6533 c -0.261,0.1216 -0.372,0.45 -0.222,0.7082 l 0.233,-0.1412 c -0.064,-0.1108 -0.019,-0.2587 0.101,-0.3147 z M 85.775,8.5018 C 85.823,8.614 85.774,8.7475 85.66,8.801 l 0.113,0.2519 c 0.244,-0.1145 0.36,-0.4076 0.25,-0.6632 z m -0.684,0.2803 c 0.113,0.2659 0.419,0.3943 0.682,0.2708 L 85.66,8.801 C 85.54,8.8573 85.395,8.8003 85.34,8.6714 Z M 68.097,2.1289 C 68.363,2.0025 68.466,1.6617 68.3,1.4072 l -0.225,0.1539 c 0.07,0.1076 0.029,0.259 -0.092,0.3164 z m -0.27,-0.6416 c 0.087,-0.0411 0.192,-0.0108 0.248,0.0738 L 68.3,1.4072 C 68.173,1.2122 67.925,1.1357 67.713,1.2357 Z m 25.689,-0.825 c 0.118,0 0.229,0.0591 0.296,0.1582 L 94.035,0.6629 C 93.917,0.4889 93.723,0.385 93.516,0.385 Z m -0.358,0.3664 c 0,-0.2023 0.16,-0.3664 0.358,-0.3664 V 0.385 c -0.347,0 -0.629,0.2882 -0.629,0.6437 z m 0.241,26.309 c -0.133,0 -0.241,-0.1103 -0.241,-0.2465 h -0.271 c 0,0.2893 0.229,0.5237 0.512,0.5237 z m 0.241,-0.2465 c 0,0.1362 -0.108,0.2465 -0.241,0.2465 v 0.2772 c 0.283,0 0.512,-0.2344 0.512,-0.5237 z M 111.488,0.6623 c 0.133,0 0.241,0.1104 0.241,0.2464 H 112 C 112,0.6194 111.77,0.385 111.488,0.385 Z M 36.6274,0.7644 C 36.6667,0.7008 36.7351,0.6623 36.8087,0.6623 V 0.385 c -0.1667,0 -0.3216,0.0873 -0.4106,0.2313 z M 111.488,0.385 c -0.283,0 -0.513,0.2344 -0.513,0.5237 h 0.271 c 0,-0.136 0.108,-0.2464 0.242,-0.2464 z M 73.774,0.0038 c -0.265,-0.0059 -0.478,0.2141 -0.478,0.4813 h 0.272 c 0,-0.1155 0.091,-0.2066 0.2,-0.2041 z M 59.735,13.6115 c -0.007,0.2927 0.225,0.5271 0.507,0.5271 v -0.2772 c -0.134,0 -0.239,-0.1106 -0.236,-0.2432 z M 73.09,27.9963 c 0.265,0.0058 0.478,-0.2142 0.478,-0.4814 h -0.272 c 0,0.1156 -0.091,0.2066 -0.2,0.2041 z M 86.376,14.3887 c 0.003,-0.1397 0.113,-0.2501 0.246,-0.2501 v -0.2772 c -0.284,0 -0.51,0.2348 -0.517,0.5203 z M 27.27,27.3377 c -0.1333,0 -0.2413,-0.1103 -0.2413,-0.2465 h -0.2711 c 0,0.2893 0.2294,0.5237 0.5124,0.5237 z M 54.904,5.3407 c 0.038,0.0926 10e-4,0.2022 -0.089,0.2542 l 0.133,0.2416 C 55.153,5.7183 55.247,5.4613 55.154,5.2337 Z M 38.5825,22.1588 c -0.031,-0.0933 0.0075,-0.1989 0.096,-0.2521 l -0.1375,-0.239 c -0.1939,0.1166 -0.2897,0.3567 -0.2152,0.5805 z m 72.7875,5.1789 c -0.118,0 -0.228,-0.0592 -0.295,-0.1582 l -0.223,0.1576 c 0.117,0.174 0.311,0.2778 0.518,0.2778 z m -72.6915,-5.431 c 0.1229,-0.0739 0.2906,-0.0111 0.3416,0.1383 l 0.256,-0.0912 C 39.173,21.6513 38.822,21.4989 38.541,21.6677 Z M 60.488,13.6114 c -0.003,0.1396 -0.113,0.25 -0.246,0.25 v 0.2772 c 0.284,0 0.511,-0.2348 0.518,-0.5203 z M 17.5502,0.9983 c -0.0903,-0.1456 0.012,-0.336 0.1811,-0.336 V 0.385 c -0.3827,0 -0.6151,0.4314 -0.4099,0.7618 z M 73.774,0.6971 C 73.659,0.6944 73.568,0.5991 73.568,0.4851 h -0.272 c 0,0.2689 0.213,0.483 0.472,0.4891 z M 17.7313,0.6623 c 0.0736,0 0.1419,0.0385 0.1812,0.1021 L 18.1418,0.6163 C 18.0529,0.4723 17.8979,0.385 17.7313,0.385 Z M 73.09,27.3029 c 0.116,0.0028 0.206,0.098 0.206,0.212 h 0.272 c 0,-0.2688 -0.213,-0.483 -0.472,-0.4891 z M 27.5112,27.0912 c 0,0.1362 -0.1079,0.2465 -0.2412,0.2465 v 0.2772 c 0.2829,0 0.5124,-0.2344 0.5124,-0.5237 z M 54.815,5.5949 C 54.706,5.6574 54.563,5.6081 54.511,5.4841 l -0.249,0.1094 c 0.112,0.2685 0.43,0.3899 0.686,0.243 z m 56.914,21.3763 c 0,0.2024 -0.161,0.3665 -0.359,0.3665 v 0.2772 c 0.348,0 0.63,-0.288 0.63,-0.6437 z m -24.6,-12.5827 c 0.007,-0.2927 -0.225,-0.5271 -0.507,-0.5271 v 0.2772 c 0.134,0 0.24,0.1106 0.236,0.2431 z M 37.2186,1.1468 C 37.4236,0.8164 37.1912,0.385 36.8087,0.385 v 0.2773 c 0.1689,0 0.2713,0.1904 0.1809,0.336 z M 0.8893,26.9219 H 14.4936 V 26.6446 H 0.8893 Z m 13.6043,0.4158 H 0.1356 v 0.2772 h 14.358 z M 0.2712,27.4763 V 0.5237 H 0 V 27.4763 Z M 0.1356,0.6623 H 14.3052 V 0.385 H 0.1356 Z M 14.3052,1.0781 H 0.8893 V 1.3553 H 14.3052 Z M 0.7537,1.2167 V 13.538 H 1.0249 V 1.2167 Z M 0.8893,13.6766 H 13.3631 V 13.3993 H 0.8893 Z m 12.4738,0.4159 H 0.8893 v 0.2772 H 13.3631 Z M 0.7537,14.2311 V 26.7832 H 1.0249 V 14.2311 Z m 12.8127,-0.3466 c 0,0.1148 -0.091,0.208 -0.2033,0.208 v 0.2772 c 0.262,0 0.4745,-0.2172 0.4745,-0.4852 z m -0.2033,-0.2079 c 0.1123,0 0.2033,0.0931 0.2033,0.2079 h 0.2712 c 0,-0.2679 -0.2125,-0.4852 -0.4745,-0.4852 z M 14.3052,0.6623 c 0.1123,0 0.2034,0.0931 0.2034,0.2079 h 0.2712 c 0,-0.268 -0.2125,-0.4852 -0.4746,-0.4852 z m 0.3917,26.4675 c 0,0.1149 -0.0909,0.2079 -0.2033,0.2079 v 0.2772 c 0.2621,0 0.4745,-0.2172 0.4745,-0.4851 z M 14.5086,0.8702 c 0,0.1148 -0.0911,0.2079 -0.2034,0.2079 v 0.2772 c 0.2621,0 0.4746,-0.2172 0.4746,-0.4851 z m -0.015,26.0517 c 0.1124,0 0.2033,0.0931 0.2033,0.2079 h 0.2712 c 0,-0.268 -0.2124,-0.4852 -0.4745,-0.4852 z"
     fill="white"
     id="path41"
     style="fill:#ffffff" />
  <defs
     id="defs85">
    <color-profile
       name="Blue"
       xlink:href="file:///usr/share/color/icc/colord/Bluish.icc"
       id="color-profile1168" />
  </defs>
</svg>
