<svg width="30" height="30" viewBox="0 0 30 30" fill="none" xmlns="http://www.w3.org/2000/svg">
<g clip-path="url(#clip0_117_526)">
<path d="M15 0C6.71581 0 0 6.71581 0 15C0 23.2842 6.71581 30 15 30C23.2842 30 30 23.2842 30 15C30 6.71581 23.2842 0 15 0ZM23.4378 6.97163L20.0793 22.7443C20.0163 23.0539 19.6635 23.2057 19.3955 23.0378L14.2307 19.6124L11.514 22.1405C11.2722 22.3473 10.8978 22.2466 10.7925 21.9461L9.02367 16.3673L4.27381 14.4193C3.90939 14.2532 3.91456 13.6728 4.2881 13.5277L22.83 6.45938C23.164 6.3298 23.509 6.6206 23.4378 6.97163Z" fill="white"/>
<path d="M11.3631 20.2915L11.6649 17.4237L20.0415 9.2356L9.9292 15.8766L11.3631 20.2915Z" fill="white"/>
</g>
<defs>
<clipPath id="clip0_117_526">
<rect width="30" height="30" fill="white"/>
</clipPath>
</defs>
</svg>
