<svg width="25" height="25" viewBox="0 0 25 25" fill="none" xmlns="http://www.w3.org/2000/svg">
<g clip-path="url(#clip0_121_699)">
<circle cx="12.9165" cy="12.0833" r="11.25" fill="white"/>
<path d="M12.5 0C5.59651 0 0 5.59651 0 12.5C0 19.4035 5.59651 25 12.5 25C19.4035 25 25 19.4035 25 12.5C25 5.59651 19.4035 0 12.5 0ZM19.5315 5.80969L16.7327 18.9536C16.6803 19.2116 16.3862 19.3381 16.1629 19.1982L11.8589 16.3436L9.59503 18.4504C9.39351 18.6228 9.08146 18.5388 8.99375 18.2884L7.51972 13.6394L3.56151 12.0161C3.25783 11.8777 3.26214 11.394 3.57342 11.2731L19.025 5.38282C19.3034 5.27483 19.5908 5.51717 19.5315 5.80969Z" fill="url(#paint0_linear_121_699)"/>
<path d="M9.46936 16.9097L9.72082 14.5198L16.7014 7.69641L8.27441 13.2306L9.46936 16.9097Z" fill="url(#paint1_linear_121_699)"/>
</g>
<defs>
<linearGradient id="paint0_linear_121_699" x1="-1.72993e-07" y1="25" x2="25" y2="-1.72993e-07" gradientUnits="userSpaceOnUse">
<stop stop-color="#4B0ADF"/>
<stop offset="1" stop-color="#8F2FCA"/>
</linearGradient>
<linearGradient id="paint1_linear_121_699" x1="8.27441" y1="16.9097" x2="17.4511" y2="8.51615" gradientUnits="userSpaceOnUse">
<stop stop-color="#4B0ADF"/>
<stop offset="1" stop-color="#8F2FCA"/>
</linearGradient>
<clipPath id="clip0_121_699">
<rect width="25" height="25" fill="white"/>
</clipPath>
</defs>
</svg>
